<svg width="24" height="24" viewBox="0 0 24 24" fill="none" xmlns="http://www.w3.org/2000/svg">
<path fill-rule="evenodd" clip-rule="evenodd" d="M17 8H7C6.44772 8 6 8.44772 6 9V17C6 17.5523 6.44772 18 7 18H17C17.5523 18 18 17.5523 18 17V9C18 8.44772 17.5523 8 17 8ZM7 6C5.34315 6 4 7.34315 4 9V17C4 18.6569 5.34315 20 7 20H17C18.6569 20 20 18.6569 20 17V9C20 7.34315 18.6569 6 17 6H7Z" fill="#9E9E9E"/>
<path fill-rule="evenodd" clip-rule="evenodd" d="M5 10C4.44772 10 4 10.4477 4 11C4 11.5523 4.44772 12 5 12H19C19.5523 12 20 11.5523 20 11C20 10.4477 19.5523 10 19 10H5Z" fill="#9E9E9E"/>
<path d="M7 4.5C7 3.94772 7.44772 3.5 8 3.5C8.55228 3.5 9 3.94772 9 4.5V6.5C9 7.05228 8.55228 7.5 8 7.5C7.44772 7.5 7 7.05228 7 6.5V4.5Z" fill="#9E9E9E"/>
<path d="M15 4.5C15 3.94772 15.4477 3.5 16 3.5C16.5523 3.5 17 3.94772 17 4.5V6.5C17 7.05228 16.5523 7.5 16 7.5C15.4477 7.5 15 7.05228 15 6.5V4.5Z" fill="#9E9E9E"/>
</svg>
