<svg width="24" height="24" viewBox="0 0 24 24" fill="none" xmlns="http://www.w3.org/2000/svg">
<path d="M22 12C22 17.5228 17.5228 22 12 22C6.47715 22 2 17.5228 2 12C2 6.47715 6.47715 2 12 2C17.5228 2 22 6.47715 22 12Z" fill="#143B75"/>
<path fill-rule="evenodd" clip-rule="evenodd" d="M17.2077 8.54353C17.5979 8.9344 17.5973 9.56756 17.2065 9.95774L11.346 15.8077C11.1582 15.9952 10.9036 16.1003 10.6383 16.1C10.3729 16.0997 10.1186 15.9939 9.93125 15.8059L6.79172 12.6559C6.40184 12.2648 6.4029 11.6316 6.79407 11.2417C7.18524 10.8518 7.81841 10.8529 8.20828 11.2441L10.6413 13.6852L15.7935 8.54226C16.1844 8.15209 16.8176 8.15265 17.2077 8.54353Z" fill="white"/>
</svg>
