<svg width="20" height="20" viewBox="0 0 20 20" fill="none" xmlns="http://www.w3.org/2000/svg">
<path fill-rule="evenodd" clip-rule="evenodd" d="M10.1698 14.1717C10.3908 14.1676 10.6012 14.0758 10.7546 13.9166L14.7669 9.74991C15.0862 9.41839 15.0762 8.89085 14.7447 8.57161C14.4132 8.25237 13.8856 8.26232 13.5664 8.59384L10.1325 12.1598L6.41178 8.572C6.08048 8.25254 5.55293 8.26213 5.23346 8.59343C4.914 8.92473 4.92359 9.45228 5.25489 9.77175L9.57588 13.9384C9.73504 14.0919 9.94868 14.1758 10.1698 14.1717Z" fill="white"/>
<path fill-rule="evenodd" clip-rule="evenodd" d="M10.0052 13.3359C10.4654 13.3359 10.8385 12.9628 10.8385 12.5026L10.8385 4.16927C10.8385 3.70903 10.4654 3.33594 10.0052 3.33594C9.54497 3.33594 9.17188 3.70903 9.17188 4.16927L9.17188 12.5026C9.17188 12.9628 9.54497 13.3359 10.0052 13.3359Z" fill="white"/>
<path fill-rule="evenodd" clip-rule="evenodd" d="M3.33594 16.6693C3.33594 16.209 3.70903 15.8359 4.16927 15.8359H15.8359C16.2962 15.8359 16.6693 16.209 16.6693 16.6693C16.6693 17.1295 16.2962 17.5026 15.8359 17.5026H4.16927C3.70903 17.5026 3.33594 17.1295 3.33594 16.6693Z" fill="white"/>
</svg>
