<svg width="36" height="36" viewBox="0 0 36 36" fill="none" xmlns="http://www.w3.org/2000/svg">
<path d="M6 9C6 7.34315 7.34315 6 9 6H27C28.6569 6 30 7.34315 30 9V27C30 28.6569 28.6569 30 27 30H9C7.34315 30 6 28.6569 6 27V9Z" fill="#DCEAFC"/>
<path fill-rule="evenodd" clip-rule="evenodd" d="M8.98126 29.9999C7.33303 29.9899 6 28.6506 6 27V24.9999L10.0858 20.9142C10.8668 20.1331 12.1332 20.1331 12.9142 20.9142L16 23.9999L22.5858 17.4142C23.3668 16.6331 24.6332 16.6331 25.4142 17.4142L30 21.9999V27C30 28.6506 28.667 29.9898 27.0188 29.9999H22L10 29.9999H8.98126Z" fill="#BFD2EC"/>
<path d="M17 13C17 14.6569 15.6569 16 14 16C12.3431 16 11 14.6569 11 13C11 11.3431 12.3431 10 14 10C15.6569 10 17 11.3431 17 13Z" fill="#BFD2EC"/>
</svg>
