<svg width="24" height="24" viewBox="0 0 24 24" fill="none" xmlns="http://www.w3.org/2000/svg">
<path d="M22 12C22 17.5228 17.5228 22 12 22C6.47715 22 2 17.5228 2 12C2 6.47715 6.47715 2 12 2C17.5228 2 22 6.47715 22 12Z" fill="#9E9E9E"/>
<path d="M11 7C11 6.44772 11.4477 6 12 6C12.5523 6 13 6.44772 13 7V13C13 13.5523 12.5523 14 12 14C11.4477 14 11 13.5523 11 13V7Z" fill="white"/>
<path d="M10.75 16.75C10.75 16.0596 11.3096 15.5 12 15.5C12.6904 15.5 13.25 16.0596 13.25 16.75C13.25 17.4404 12.6904 18 12 18C11.3096 18 10.75 17.4404 10.75 16.75Z" fill="white"/>
</svg>
