<svg width="24" height="24" viewBox="0 0 24 24" fill="none" xmlns="http://www.w3.org/2000/svg">
<path fill-rule="evenodd" clip-rule="evenodd" d="M16.5 4H7.5L7.5 7H16.5V4ZM7.5 2C6.39543 2 5.5 2.89543 5.5 4V7C5.5 8.10457 6.39543 9 7.5 9H16.5C17.6046 9 18.5 8.10457 18.5 7V4C18.5 2.89543 17.6046 2 16.5 2H7.5Z" fill="#15181F"/>
<path fill-rule="evenodd" clip-rule="evenodd" d="M4 9H20V17H18.5V19H20C21.1046 19 22 18.1046 22 17V9C22 7.89543 21.1046 7 20 7H4C2.89543 7 2 7.89543 2 9V17C2 18.1046 2.89543 19 4 19H5.5V17H4V9Z" fill="#15181F"/>
<path fill-rule="evenodd" clip-rule="evenodd" d="M16.5 15H7.5L7.5 20H16.5V15ZM7.5 13C6.39543 13 5.5 13.8954 5.5 15V20C5.5 21.1046 6.39543 22 7.5 22H16.5C17.6046 22 18.5 21.1046 18.5 20V15C18.5 13.8954 17.6046 13 16.5 13H7.5Z" fill="#15181F"/>
<path d="M15 11.25C15 10.8358 15.3358 10.5 15.75 10.5H17.25C17.6642 10.5 18 10.8358 18 11.25V11.25C18 11.6642 17.6642 12 17.25 12H15.75C15.3358 12 15 11.6642 15 11.25V11.25Z" fill="#15181F"/>
</svg>
