<svg width="24" height="24" viewBox="0 0 24 24" fill="none" xmlns="http://www.w3.org/2000/svg">
<path fill-rule="evenodd" clip-rule="evenodd" d="M18.9251 10.801C18.244 6.99552 14.6068 4.46272 10.8013 5.14386C6.99576 5.82501 4.46296 9.46217 5.14411 13.2677C5.82526 17.0732 9.46242 19.606 13.2679 18.9249C14.6804 18.672 15.9151 18.0135 16.8767 17.0906C17.2752 16.7082 17.9082 16.7213 18.2906 17.1197C18.673 17.5182 18.66 18.1512 18.2615 18.5336C17.024 19.7213 15.4332 20.5691 13.6203 20.8936C8.7275 21.7693 4.05116 18.5129 3.1754 13.6201C2.29964 8.72726 5.55609 4.05091 10.4489 3.17515C15.3417 2.29939 20.018 5.55585 20.8938 10.4487C20.9911 10.9923 20.6293 11.5119 20.0856 11.6092C19.542 11.7065 19.0224 11.3447 18.9251 10.801Z" fill="#757575"/>
<path fill-rule="evenodd" clip-rule="evenodd" d="M20.6732 12.5307C20.9327 12.4308 21.1389 12.2274 21.2423 11.9693L23.0183 7.53549C23.2237 7.0228 22.9745 6.44071 22.4619 6.23535C21.9492 6.02999 21.3671 6.27912 21.1617 6.79181L19.7862 10.2259L16.4633 8.60005C15.9672 8.35733 15.3682 8.56272 15.1255 9.05881C14.8828 9.5549 15.0882 10.1538 15.5843 10.3965L19.8745 12.4957C20.1243 12.6179 20.4137 12.6306 20.6732 12.5307Z" fill="#757575"/>
</svg>
