<svg width="36" height="36" viewBox="0 0 36 36" fill="none" xmlns="http://www.w3.org/2000/svg">
<path fill-rule="evenodd" clip-rule="evenodd" d="M10 4C8.34315 4 7 5.34315 7 7V29C7 30.6569 8.34315 32 10 32H26C27.6569 32 29 30.6569 29 29V12L21 4H10Z" fill="#DCEAFC"/>
<path fill-rule="evenodd" clip-rule="evenodd" d="M23 12H29L21 4V10C21 11.1046 21.8954 12 23 12Z" fill="#B8CAE1"/>
<path d="M10.5 18C10.5 17.4477 10.9477 17 11.5 17H20.5C21.0523 17 21.5 17.4477 21.5 18C21.5 18.5523 21.0523 19 20.5 19H11.5C10.9477 19 10.5 18.5523 10.5 18Z" fill="#A1B3C9"/>
<path d="M10.5 13C10.5 12.4477 10.9477 12 11.5 12H17.5C18.0523 12 18.5 12.4477 18.5 13C18.5 13.5523 18.0523 14 17.5 14H11.5C10.9477 14 10.5 13.5523 10.5 13Z" fill="#A1B3C9"/>
<path d="M34 27C34 30.866 30.866 34 27 34C23.134 34 20 30.866 20 27C20 23.134 23.134 20 27 20C30.866 20 34 23.134 34 27Z" fill="#2AD6CE"/>
<path fill-rule="evenodd" clip-rule="evenodd" d="M30.5206 24.7101C30.8188 24.9976 30.8274 25.4724 30.5399 25.7706L26.6827 29.7706C26.5414 29.9172 26.3465 30 26.1429 30C25.9392 30 25.7443 29.9172 25.603 29.7706L23.4601 27.5484C23.1726 27.2502 23.1812 26.7754 23.4794 26.4879C23.7776 26.2004 24.2524 26.209 24.5399 26.5072L26.1429 28.1695L29.4601 24.7294C29.7476 24.4312 30.2224 24.4226 30.5206 24.7101Z" fill="white"/>
</svg>
