<svg width="198" height="54" viewBox="0 0 198 54" fill="none" xmlns="http://www.w3.org/2000/svg">
<path d="M11.5 15.6409L6 13L11.5 23L17 13L11.5 15.6409Z" fill="#FFAA1A"/>
<path d="M18.2366 21.2332L18.1545 21.1614L21.9719 19.5079V14L15.329 16.9033C15.329 16.9033 11.7317 23.8876 11.653 24.0469C13.0685 24.2176 14.3668 24.9361 15.2823 26.0555C16.1978 27.1749 16.6613 28.6105 16.5778 30.0686C16.4944 31.5266 15.8704 32.8969 14.8335 33.899C13.7966 34.9011 12.4253 35.4592 11 35.4592C9.57474 35.4592 8.20335 34.9011 7.16647 33.899C6.12958 32.8969 5.50558 31.5266 5.42216 30.0686C5.33874 28.6105 5.80219 27.1749 6.7177 26.0555C7.6332 24.9361 8.93154 24.2176 10.347 24.0469C10.2575 23.8876 6.66562 16.9033 6.66562 16.9033L0.0291426 14V19.5079L3.85086 21.158L3.76884 21.2332C2.08132 22.7418 0.883306 24.7423 0.334919 26.9673C-0.213469 29.1922 -0.0861072 31.5357 0.699981 33.6845C1.48607 35.8334 2.89344 37.6851 4.73399 38.9923C6.57454 40.2996 8.7606 41 11 41C13.2394 41 15.4255 40.2996 17.266 38.9923C19.1066 37.6851 20.5139 35.8334 21.3 33.6845C22.0861 31.5357 22.2135 29.1922 21.6651 26.9673C21.1167 24.7423 19.9187 22.7418 18.2312 21.2332" fill="#FFAA1A"/>
<path d="M162.659 28C162.735 28.0014 162.807 28.0283 162.863 28.0759C162.92 28.1234 162.955 28.1883 162.963 28.2583C163.012 28.5675 163.012 28.8817 162.963 29.191C162.963 29.2677 162.931 29.3414 162.875 29.3972C162.818 29.453 162.74 29.4865 162.658 29.4911H150.818L150.87 29.4973C146.892 29.4973 143.751 30.7458 143.751 33.4895C143.751 36.2333 146.935 37.4838 150.87 37.4838C154.806 37.4838 157.991 36.2291 157.991 33.4895C157.997 32.9136 157.837 32.3465 157.529 31.8466C157.22 31.3466 156.774 30.9317 156.236 30.6444H160.746C161.384 31.4069 161.722 32.3481 161.705 33.3128C161.705 37.2203 156.856 39 150.869 39C144.882 39 140.035 37.2224 140.035 33.3128C140.034 32.5467 140.245 31.7931 140.647 31.124C141.049 30.4549 141.63 29.8926 142.334 29.4911H139.063L138 28H162.659Z" fill="#0067B6"/>
<path d="M163 23.8107L162.04 25C156.11 25 151.926 23.6004 150.502 21.8037C149.075 23.6004 144.891 25 138.961 25L138 23.8107C143.235 23.8107 148.176 21.8984 148.176 19.3068H139.629L138.582 18H161.519C161.778 18 161.837 18.2568 161.837 18.6529C161.837 19.049 161.778 19.3068 161.519 19.3068H152.826C152.826 21.8975 157.767 23.8107 163 23.8107Z" fill="#0067B6"/>
<path d="M176.646 19.3724H166.927L165.874 17.8239H180.22C180.451 17.8294 180.671 17.9187 180.834 18.0733C180.998 18.2279 181.092 18.4359 181.097 18.6542V25.6733H185.195V17H188.122C188.353 17.0055 188.573 17.0947 188.737 17.2493C188.9 17.4039 188.994 17.6119 189 17.8303V38H169.094C168.629 37.9986 168.182 37.8234 167.853 37.5127C167.524 37.202 167.338 36.781 167.336 36.3415V31.6441H170.265C170.497 31.6491 170.717 31.7382 170.881 31.8929C171.045 32.0476 171.139 32.2559 171.144 32.4745V35.6244C171.149 35.8424 171.243 36.05 171.406 36.2041C171.57 36.3582 171.79 36.4468 172.021 36.4515H185.195V31.5331H179.228L178.176 29.9867H185.2V27.2218H174.805V31.092H171.003V27.2218H166.053L165 25.6754H177.286V19.9439C177.286 19.4144 176.642 19.3746 176.642 19.3746" fill="#0067B6"/>
<path d="M79.5715 17H76.2619V25.3684H62.7299V17H59.4248C59.0145 17.0374 58.6356 17.2314 58.37 17.54C58.1043 17.8487 57.9731 18.2473 58.0046 18.6499V36.3468C57.973 36.7498 58.1042 37.1488 58.3698 37.4579C58.6354 37.7671 59.0142 37.9618 59.4248 38H62.7299V29.0083H76.2619V38H79.5715C79.9826 37.9623 80.3621 37.7679 80.6283 37.4587C80.8946 37.1495 81.0262 36.7502 80.995 36.3468V18.6499C81.028 18.2465 80.8968 17.8466 80.6302 17.5375C80.3635 17.2285 79.983 17.0352 79.5715 17Z" fill="#0067B6"/>
<path d="M52.6081 17H49.3677V33.0807L39.6259 20.2345C38.0068 18.359 36.894 17 34.3058 17H31.0045V36.3468C30.9737 36.7511 31.1032 37.1514 31.3651 37.4608C31.627 37.7702 32.0001 37.9639 32.4036 38H35.6386V21.8462L45.4381 34.6032C47.0932 36.5212 48.5674 38 50.9694 38H53.9953V18.6499C54.0268 18.2477 53.899 17.8492 53.6394 17.5405C53.3799 17.2318 53.0095 17.0377 52.6081 17Z" fill="#0067B6"/>
<path d="M108.69 31.7132H98.6322V38H94.9401V31.7132H85.024L84 30.1135H108.688C108.944 30.1135 109 30.4274 109 30.9139C109 31.4004 108.944 31.7132 108.688 31.7132M85.9927 26.0277V17H107.27C107.525 17 107.583 17.3151 107.583 17.7993C107.583 18.2836 107.525 18.5998 107.27 18.5998H89.6826V21.3708H107.128C107.384 21.3708 107.44 21.6847 107.44 22.1712C107.44 22.6577 107.384 22.9717 107.128 22.9717H89.6826V25.2851C89.6877 25.511 89.7791 25.7262 89.9378 25.886C90.0966 26.0459 90.3105 26.1381 90.5351 26.1435H107.554C107.809 26.1435 107.866 26.4563 107.866 26.9417C107.866 27.4271 107.809 27.7421 107.554 27.7421H87.6943C87.2426 27.7407 86.8098 27.5596 86.4904 27.2384C86.171 26.9172 85.9909 26.4819 85.9894 26.0277" fill="#0067B6"/>
<path d="M126.932 36.3429C124.054 35.4309 120.764 33.0534 119.575 30.2624C118.389 33.0534 115.094 35.4309 112.217 36.3429L111 35.209C113.023 34.4333 114.758 33.0548 115.97 31.2604C117.183 29.4659 117.813 27.3425 117.776 25.178V19.3807H112.548L111.553 17.8334H127.015C127.263 17.8334 127.319 18.1371 127.319 18.6065C127.319 19.076 127.263 19.3807 127.015 19.3807H121.373V25.1823C121.336 27.3468 121.966 29.4702 123.179 31.2647C124.391 33.0591 126.126 34.4376 128.149 35.2134L126.932 36.3429ZM130.362 38V17H133.129C133.347 17.0052 133.555 17.0943 133.709 17.2487C133.864 17.4031 133.952 17.6109 133.957 17.8291V23.355H136.696C136.945 23.355 137 23.6587 137 24.1271C137 24.5954 136.945 24.9023 136.696 24.9023H133.957V38H130.362Z" fill="#0067B6"/>
</svg>
