<svg width="120" height="54" viewBox="0 0 120 54" fill="none" xmlns="http://www.w3.org/2000/svg">
<path d="M83.876 19.3359V44.1669H90.892V34.3059L97.492 44.1669H105.973L97.213 31.1389H90.892V19.3389L83.876 19.3359Z" fill="#CED0D2"/>
<path d="M112.506 9L108.206 32.112L106.135 28.2C105.426 26.9018 104.582 25.682 103.617 24.561L94.5907 34.95L89.3027 30.35L98.3297 19.967C97.0863 19.1665 95.7612 18.5008 94.3767 17.981L90.2187 16.473L112.506 9Z" fill="#E0007A"/>
<path d="M15.108 17.3169C15.1178 16.4841 14.9228 15.6616 14.54 14.9219H18.917C18.97 14.9219 19.017 14.9609 19.017 14.9919V38.2919C19.017 38.3199 18.976 38.3519 18.917 38.3519H15.206C15.147 38.3519 15.106 38.3199 15.106 38.2919L15.108 17.3169Z" fill="#003067"/>
<path d="M1 16.3594V19.1874H7.664C8.102 19.1874 8.069 19.5524 8.069 19.6874C8.07124 20.797 7.95254 21.9035 7.715 22.9874H0.814V25.8164H6.787C5.3356 28.9662 2.97098 31.6071 0 33.3964L3 35.3514C11.29 30.1964 12.026 23.1854 12.026 17.8874V16.3594H1Z" fill="#003067"/>
<path d="M42.1487 25.2109H21.4857C21.4267 25.2109 21.3857 25.2439 21.3857 25.2739V27.9059C21.3857 27.9349 21.4277 27.9679 21.4857 27.9679H29.5417V30.0289H23.1867C23.5847 30.7755 23.7857 31.6111 23.7707 32.4569V37.8339C23.7707 37.8709 23.8177 37.8999 23.8707 37.8999H39.7007C39.7577 37.8999 39.8007 37.8709 39.8007 37.8339V30.0919C39.8007 30.0569 39.7527 30.0289 39.7007 30.0289H34.0297V27.9679H42.1487C42.2027 27.9679 42.2487 27.9389 42.2487 27.9059V25.2739C42.2487 25.2399 42.2027 25.2109 42.1487 25.2109ZM35.9117 35.2109H27.5747V32.7459H35.9117V35.2109Z" fill="#003067"/>
<path d="M67.1896 18.2478V15.5718C67.1901 15.5639 67.1922 15.5562 67.1957 15.5491C67.1992 15.542 67.204 15.5357 67.21 15.5305C67.2159 15.5253 67.2229 15.5213 67.2303 15.5188C67.2378 15.5162 67.2457 15.5152 67.2536 15.5158H78.6266C78.6429 15.5149 78.6589 15.5206 78.671 15.5314C78.6832 15.5423 78.6906 15.5575 78.6916 15.5738C78.603 17.8638 78.3332 20.1433 77.8846 22.3908L77.8776 22.4288L77.8456 22.5698H80.7216C80.7379 22.5694 80.7537 22.5752 80.7659 22.5859C80.7781 22.5967 80.7859 22.6116 80.7876 22.6278V25.2808C80.7856 25.2967 80.7777 25.3112 80.7655 25.3216C80.7533 25.332 80.7376 25.3374 80.7216 25.3368H73.6136V29.6708C73.6131 29.6787 73.611 29.6865 73.6075 29.6937C73.6039 29.7009 73.599 29.7072 73.5929 29.7124C73.5869 29.7177 73.5798 29.7216 73.5722 29.7241C73.5646 29.7265 73.5566 29.7274 73.5486 29.7268H69.7836C69.7756 29.7275 69.7675 29.7265 69.7599 29.7241C69.7522 29.7216 69.7451 29.7177 69.739 29.7125C69.7328 29.7073 69.7278 29.7009 69.7241 29.6938C69.7205 29.6866 69.7183 29.6788 69.7176 29.6708V25.3368H65.9556C65.9397 25.3376 65.924 25.3323 65.9119 25.3218C65.8998 25.3114 65.8921 25.2967 65.8906 25.2808V22.6278C65.8917 22.6115 65.8991 22.5963 65.9112 22.5854C65.9234 22.5746 65.9393 22.5689 65.9556 22.5698H74.0176L74.0526 22.4558C74.3927 21.1666 74.5975 19.8454 74.6636 18.5138L74.6736 18.3068H67.2536C67.2373 18.3073 67.2215 18.3014 67.2095 18.2904C67.1976 18.2793 67.1904 18.264 67.1896 18.2478Z" fill="#003067"/>
<path d="M69.9572 37.8203V33.5003C69.9724 32.6579 69.784 31.8243 69.4082 31.0703H73.7552C73.8092 31.0703 73.8552 31.1013 73.8552 31.1443V35.1133H85.6452C85.6972 35.1133 85.7452 35.1463 85.7452 35.1853V37.8153C85.7437 37.8269 85.74 37.838 85.7341 37.8481C85.7282 37.8582 85.7204 37.867 85.7111 37.874C85.7018 37.881 85.6911 37.886 85.6798 37.8888C85.6685 37.8916 85.6567 37.8921 85.6452 37.8903H70.0552C70.032 37.8935 70.0085 37.8874 69.9898 37.8733C69.9711 37.8593 69.9587 37.8384 69.9552 37.8153" fill="#003067"/>
<path d="M85.5543 14.9894C85.6063 14.9894 85.6543 15.0274 85.6543 15.0584V32.0154C85.6543 32.0434 85.6133 32.0754 85.5543 32.0754H81.9343C81.8773 32.0754 81.8343 32.0434 81.8343 32.0154V29.4274H76.4633C76.4402 29.4308 76.4167 29.4249 76.398 29.4111C76.3792 29.3972 76.3667 29.3764 76.3633 29.3534V26.7424C76.3633 26.7044 76.4073 26.6724 76.4633 26.6724H81.8373V17.3844C81.8482 16.55 81.6535 15.7257 81.2703 14.9844L85.5543 14.9894Z" fill="#003067"/>
<path d="M39.3465 19.2276C39.3465 22.0576 35.9465 24.3526 31.7465 24.3526C27.5465 24.3526 24.1465 22.0526 24.1465 19.2276C24.1465 16.4026 27.5465 14.1016 31.7465 14.1016C35.9465 14.1016 39.3465 16.3956 39.3465 19.2276ZM31.7465 16.8826C29.9695 16.8826 28.5305 17.9326 28.5305 19.2276C28.5305 20.5226 29.9695 21.5706 31.7465 21.5706C33.5235 21.5706 34.9645 20.5216 34.9645 19.2276C34.9645 17.9336 33.5235 16.8826 31.7465 16.8826Z" fill="#003067"/>
<path d="M45.7441 18.2545V15.5715C45.7449 15.5581 45.7509 15.5456 45.7608 15.5366C45.7707 15.5277 45.7837 15.5229 45.7971 15.5235H62.8311C62.8442 15.5232 62.8569 15.5281 62.8664 15.5371C62.8759 15.546 62.8816 15.5584 62.8821 15.5715V18.2545C62.882 18.261 62.8805 18.2674 62.8779 18.2734C62.8752 18.2794 62.8714 18.2847 62.8667 18.2892C62.8619 18.2937 62.8563 18.2972 62.8502 18.2994C62.8441 18.3017 62.8376 18.3027 62.8311 18.3025H56.7681L57.1281 18.6335C59.4691 20.7775 63.8131 21.8785 64.3021 21.9965C64.3311 22.0037 64.3577 22.0186 64.3791 22.0395L64.3361 22.1395C64.3291 22.1455 62.4561 24.1175 62.3681 24.2805C62.3346 24.2785 62.3012 24.2749 62.2681 24.2695C59.4851 23.5839 56.8406 22.425 54.4501 20.8435L54.3111 20.7435L54.1711 20.8435C51.7706 22.4233 49.1187 23.5832 46.3291 24.2735C46.2681 24.2835 46.2641 24.2825 46.2291 24.2415C46.2151 24.2145 46.1601 24.1155 44.2591 22.0985C44.2721 22.1145 44.2461 22.0455 44.2461 22.0455C44.2461 22.0305 44.2891 22.0095 44.3201 22.0015C44.8081 21.8825 49.1661 20.7695 51.4951 18.6375L51.8581 18.3045H45.8001C45.7867 18.305 45.7737 18.3003 45.7638 18.2913C45.7539 18.2823 45.7479 18.2698 45.7471 18.2565" fill="#003067"/>
<path d="M64.4819 27.8968C64.5339 27.8968 64.5819 27.8678 64.5819 27.8348V25.1968C64.5819 25.1618 64.5369 25.1328 64.4819 25.1328H44.1459C44.0869 25.1328 44.0459 25.1668 44.0459 25.1968V27.8288C44.0459 27.8578 44.0859 27.8908 44.1459 27.8908L64.4819 27.8968Z" fill="#003067"/>
<path d="M61.9498 33.6575C61.9498 36.4725 58.5308 38.7575 54.3118 38.7575C50.0928 38.7575 46.6748 36.4765 46.6748 33.6575C46.6748 30.8385 50.0948 28.5625 54.3118 28.5625C58.5288 28.5625 61.9498 30.8435 61.9498 33.6575ZM54.3118 31.3425C52.5118 31.3425 51.0448 32.3785 51.0448 33.6575C51.0448 34.9365 52.5078 35.9705 54.3118 35.9705C56.1158 35.9705 57.5808 34.9355 57.5808 33.6575C57.5808 32.3795 56.1178 31.3425 54.3118 31.3425Z" fill="#003067"/>
</svg>
