<svg width="124" height="54" viewBox="0 0 124 54" fill="none" xmlns="http://www.w3.org/2000/svg">
<path d="M85.7197 14.4297V34.2047H106.528L116.928 23.8047H96.1277V14.4297H85.7197Z" fill="#6B6D70"/>
<path d="M96.1257 3L85.7188 13.4H106.527V22.77H116.927V3H96.1257Z" fill="#6B6D70"/>
<path d="M4.493 38.7329C3.99206 38.3299 3.36003 38.1259 2.718 38.1599H0V45.3709H2.726C3.05439 45.3902 3.38316 45.3402 3.691 45.2243C3.99885 45.1083 4.2789 44.929 4.513 44.6979C4.9508 44.2168 5.1802 43.5818 5.151 42.9319V40.6519C5.18491 40.3038 5.14372 39.9524 5.03021 39.6215C4.91669 39.2906 4.7335 38.9869 4.493 38.7329ZM4.493 40.6629V42.9319C4.51395 43.4123 4.36171 43.8843 4.064 44.2619C3.88178 44.4431 3.66183 44.5818 3.41984 44.6683C3.17785 44.7547 2.91977 44.7867 2.664 44.7619H0.652V38.7619H2.661C3.16093 38.7186 3.65817 38.8709 4.048 39.1869C4.21617 39.3908 4.34191 39.6262 4.41781 39.8793C4.49371 40.1324 4.51826 40.3982 4.49 40.6609" fill="#6B6D70"/>
<path d="M9.7763 40.5803C9.6392 40.448 9.47699 40.3444 9.29924 40.2757C9.12148 40.207 8.93178 40.1746 8.7413 40.1803H7.9753C7.8453 40.1803 7.7153 40.1803 7.5853 40.1893C7.4553 40.1983 7.3353 40.2033 7.2213 40.2103C7.1073 40.2173 6.9913 40.2333 6.8553 40.2403L6.7373 40.2473V40.7823H8.6713C8.78531 40.7751 8.89961 40.7911 9.00723 40.8295C9.11485 40.8678 9.21354 40.9276 9.2973 41.0053C9.38241 41.1074 9.44632 41.2254 9.4853 41.3525C9.52427 41.4795 9.53753 41.6131 9.5243 41.7453V42.2793H7.9853C7.73186 42.2626 7.47762 42.2963 7.2373 42.3786C6.99699 42.4608 6.77537 42.5899 6.5853 42.7583C6.34895 42.984 6.18576 43.2754 6.11682 43.5949C6.04789 43.9143 6.07638 44.2471 6.19863 44.5502C6.32087 44.8533 6.53123 45.1127 6.80251 45.2949C7.07379 45.4771 7.3935 45.5738 7.7203 45.5723H7.7263C7.8163 45.5723 7.9663 45.5663 8.1813 45.5623C8.3963 45.5583 8.6193 45.5453 8.8373 45.5323L9.6723 45.4813H10.1863V41.7083C10.1989 41.5023 10.1691 41.2958 10.0985 41.1017C10.028 40.9077 9.91831 40.7302 9.7763 40.5803ZM9.5243 42.8743V44.9073C9.2453 44.9233 9.0123 44.9353 8.8243 44.9403C8.6043 44.9543 8.3933 44.9623 8.1933 44.9693C7.9933 44.9763 7.8493 44.9793 7.7733 44.9793C7.50646 44.9805 7.24886 44.8817 7.0513 44.7023C6.94894 44.6064 6.86898 44.4892 6.81713 44.3588C6.76528 44.2285 6.7428 44.0883 6.7513 43.9483C6.74987 43.9391 6.74987 43.9296 6.7513 43.9203C6.7453 43.7784 6.77162 43.637 6.82827 43.5067C6.88491 43.3764 6.97041 43.2607 7.0783 43.1683C7.36466 42.9517 7.72027 42.8472 8.0783 42.8743H9.5243Z" fill="#6B6D70"/>
<path d="M11.9144 45.4809H12.5844V40.2599H11.9144V45.4809ZM12.5844 39.0359V38.1719H11.9004V39.6399L12.5844 39.0359Z" fill="#6B6D70"/>
<path d="M17.5453 42.9441C17.2114 42.6794 16.8061 42.5203 16.3813 42.4871L15.8593 42.4361C15.5269 42.42 15.2017 42.3334 14.9053 42.1821C14.8181 42.1124 14.7505 42.0214 14.7088 41.9178C14.6671 41.8143 14.6528 41.7018 14.6673 41.5911C14.6521 41.4691 14.6733 41.3453 14.7283 41.2353C14.7832 41.1254 14.8695 41.0341 14.9763 40.9731C15.2615 40.8371 15.5743 40.7687 15.8903 40.7731H17.7003V40.2241H17.5823C17.3123 40.2171 17.0823 40.2071 16.9013 40.1941C16.7203 40.1811 16.5343 40.1811 16.3413 40.1721C16.1483 40.1631 15.9983 40.1641 15.8883 40.1641C15.6481 40.1628 15.4086 40.1886 15.1743 40.2411C14.9606 40.2883 14.7572 40.374 14.5743 40.4941C14.403 40.6144 14.2606 40.7712 14.1573 40.9531C14.0497 41.1586 13.9967 41.3883 14.0033 41.6201C13.986 41.8195 14.0216 42.0199 14.1066 42.2011C14.1916 42.3823 14.3229 42.5379 14.4873 42.6521C14.8621 42.8693 15.282 42.9973 15.7143 43.0261L16.2023 43.0751C16.5054 43.0885 16.7975 43.193 17.0403 43.3751C17.1288 43.4529 17.1982 43.55 17.2433 43.6589C17.2884 43.7677 17.3079 43.8855 17.3003 44.0031C17.3174 44.1464 17.2915 44.2915 17.226 44.42C17.1605 44.5486 17.0583 44.6548 16.9323 44.7251C16.6035 44.8772 16.2433 44.9492 15.8813 44.9351H14.1733V45.5111H14.2913C14.5579 45.5271 14.7839 45.5371 14.9693 45.5411C15.1493 45.5481 15.3263 45.5541 15.5023 45.5581C15.6783 45.5621 15.8103 45.5581 15.9023 45.5581C16.1682 45.5596 16.4336 45.5338 16.6943 45.4811C16.9305 45.4352 17.155 45.342 17.3543 45.2071C17.5463 45.0807 17.7043 44.909 17.8143 44.7071C17.9333 44.4776 17.9918 44.2215 17.9843 43.9631C17.9932 43.7702 17.9586 43.5778 17.8831 43.4C17.8077 43.2222 17.6932 43.0637 17.5483 42.9361" fill="#6B6D70"/>
<path d="M23.4004 41.1679C23.304 40.9618 23.1681 40.7766 23.0004 40.6229C22.8357 40.478 22.6455 40.365 22.4394 40.2899C22.2362 40.2127 22.0207 40.1727 21.8034 40.1719C21.6173 40.18 21.4333 40.2136 21.2564 40.2719C21.0464 40.3309 20.8394 40.3999 20.6364 40.4719C20.4784 40.5289 20.2954 40.6019 20.0854 40.6859V38.1719H19.4424V45.4819H20.0854V41.2929L20.7414 41.0449C20.9354 40.9819 21.1414 40.9179 21.3414 40.8589C21.4901 40.8108 21.6443 40.7822 21.8004 40.7739C22.0866 40.7751 22.3612 40.8873 22.5664 41.0869C22.6793 41.1926 22.7681 41.3216 22.8266 41.4648C22.8851 41.6081 22.912 41.7623 22.9054 41.9169V45.4819H23.5564V41.9069C23.5607 41.6518 23.508 41.3991 23.4004 41.1679Z" fill="#6B6D70"/>
<path d="M25.1506 45.4819H25.8216V40.2609H25.1506V45.4819ZM25.8216 39.0349V38.1719H25.1406V39.6399L25.8216 39.0349Z" fill="#6B6D70"/>
<path d="M31.5996 41.1679C31.5033 40.9618 31.3674 40.7766 31.1996 40.6229C31.0354 40.4769 30.8446 40.3639 30.6376 40.2899C30.4339 40.2122 30.2177 40.1722 29.9996 40.1719C29.8145 40.1798 29.6315 40.2134 29.4556 40.2719C29.2436 40.3309 29.0386 40.3999 28.8346 40.4719C28.6756 40.5289 28.4906 40.6019 28.2826 40.6849V40.2639H27.6396V45.4839H28.2816V41.2929L28.9376 41.0449C29.1326 40.9819 29.3376 40.9189 29.5376 40.8589C29.6873 40.8105 29.8426 40.7816 29.9996 40.7729C30.2863 40.7746 30.5611 40.8871 30.7666 41.0869C30.8801 41.1922 30.9693 41.3211 31.0278 41.4644C31.0864 41.6078 31.1129 41.7622 31.1056 41.9169V45.4819H31.7566V41.9069C31.761 41.6518 31.7073 41.3991 31.5996 41.1679Z" fill="#6B6D70"/>
<path d="M39.8327 42.4141C39.7207 42.1977 39.556 42.013 39.3537 41.8771C39.1363 41.7346 38.8972 41.6282 38.6457 41.5621C38.3589 41.4817 38.0678 41.4176 37.7737 41.3701C37.4627 41.3211 37.1887 41.2701 36.9577 41.2111C36.756 41.165 36.5631 41.0863 36.3867 40.9781C36.2422 40.8878 36.1277 40.7565 36.0577 40.6011C35.9748 40.3934 35.9363 40.1706 35.9447 39.9471V39.9151C35.9255 39.7402 35.9508 39.5634 36.0183 39.401C36.0858 39.2385 36.1933 39.0958 36.3307 38.9861C36.7032 38.7682 37.1322 38.6665 37.5627 38.6941H39.6477V38.1461H39.5317C39.2597 38.1321 39.0217 38.1201 38.8227 38.1151C38.6237 38.1101 38.4097 38.1011 38.1817 38.0901C37.9537 38.0791 37.7427 38.0741 37.5557 38.0741C36.9782 38.0444 36.4052 38.1908 35.9127 38.4941C35.6936 38.6638 35.5209 38.8862 35.4107 39.1406C35.3006 39.395 35.2566 39.6731 35.2827 39.9491C35.2696 40.2724 35.3287 40.5945 35.4557 40.8921C35.5653 41.1281 35.7384 41.329 35.9557 41.4721C36.1869 41.6219 36.4418 41.7311 36.7097 41.7951C36.9927 41.8641 37.3097 41.9261 37.6477 41.9801C37.9407 42.0311 38.1987 42.0881 38.4207 42.1451C38.6092 42.1915 38.7891 42.2674 38.9537 42.3701C39.0823 42.4584 39.1857 42.5787 39.2537 42.7191C39.3272 42.8977 39.3613 43.0901 39.3537 43.2831C39.3795 43.5009 39.3583 43.7218 39.2913 43.9307C39.2244 44.1397 39.1133 44.3318 38.9657 44.4941C38.6183 44.7453 38.1932 44.8653 37.7657 44.8331H35.4657V45.4001L35.5807 45.4071C35.8937 45.4201 36.1617 45.4291 36.3897 45.4351C36.6177 45.4411 36.8537 45.4581 37.1077 45.4611C37.3617 45.4641 37.5837 45.4681 37.7767 45.4681C38.3674 45.5062 38.9521 45.3312 39.4247 44.9751C39.6407 44.7477 39.8048 44.4761 39.9058 44.1792C40.0068 43.8823 40.0422 43.567 40.0097 43.2551C40.0194 42.9662 39.9598 42.6792 39.8357 42.4181" fill="#6B6D70"/>
<path d="M45.1344 42.1002C45.1528 41.8333 45.1118 41.5656 45.0143 41.3164C44.9167 41.0672 44.7651 40.8428 44.5704 40.6592C44.1408 40.3174 43.6006 40.1452 43.0524 40.1752C42.7856 40.1757 42.5206 40.219 42.2674 40.3032C42.0234 40.3821 41.7969 40.5074 41.6004 40.6722C41.3995 40.84 41.2386 41.0504 41.1294 41.2882C41.0118 41.5528 40.9535 41.8398 40.9584 42.1292V43.0292C40.921 43.6813 41.0835 44.3292 41.4244 44.8862C41.6132 45.1243 41.8583 45.3117 42.1377 45.4313C42.417 45.5509 42.7218 45.599 43.0244 45.5712H43.0314C43.1464 45.5712 43.3014 45.5712 43.5024 45.5662C43.7034 45.5612 43.9024 45.5582 44.0904 45.5502C44.2784 45.5422 44.5214 45.5352 44.8084 45.5222L44.9254 45.5152V44.9602H43.0424C42.8327 44.9849 42.6201 44.9531 42.4268 44.8682C42.2334 44.7833 42.0662 44.6483 41.9424 44.4772C41.7215 44.0613 41.6126 43.595 41.6264 43.1242H45.1364L45.1344 42.1002ZM41.6214 42.5162V42.1492C41.6111 41.9655 41.6403 41.7816 41.7069 41.61C41.7734 41.4384 41.8759 41.283 42.0074 41.1542C42.2946 40.8988 42.6693 40.7641 43.0534 40.7782C43.4322 40.7536 43.8075 40.8634 44.1134 41.0882C44.2456 41.2213 44.3465 41.3822 44.4088 41.5591C44.4711 41.7361 44.4931 41.9247 44.4734 42.1112V42.5112L41.6214 42.5162Z" fill="#6B6D70"/>
<path d="M49.2853 40.2025C49.4553 40.2165 49.6793 40.2255 49.9563 40.2315H50.0743V40.7905H48.5203C48.0779 40.7638 47.6392 40.886 47.2743 41.1375C47.1197 41.2762 46.9998 41.4493 46.9243 41.6428C46.8487 41.8362 46.8196 42.0447 46.8393 42.2515V43.5025C46.8133 43.7139 46.841 43.9285 46.9196 44.1265C46.9982 44.3245 47.1253 44.4995 47.2893 44.6355C47.6585 44.8623 48.0874 44.9728 48.5203 44.9525H50.1003V45.5185L49.9833 45.5255C49.7163 45.5375 49.5003 45.5485 49.3243 45.5555C49.1483 45.5625 48.9713 45.5645 48.8063 45.5695C48.6413 45.5745 48.5223 45.5755 48.4553 45.5755C47.8723 45.601 47.2972 45.4333 46.8193 45.0985C46.5912 44.8996 46.4137 44.6494 46.3014 44.3684C46.1891 44.0874 46.1452 43.7838 46.1733 43.4825V42.2585C46.1531 41.966 46.1999 41.6727 46.3101 41.401C46.4203 41.1293 46.591 40.8863 46.8093 40.6905C47.2801 40.3301 47.863 40.1474 48.4553 40.1745C48.4553 40.1745 49.1053 40.1935 49.2803 40.2055" fill="#6B6D70"/>
<path d="M54.7079 40.2656V44.4556C54.4459 44.5556 54.2259 44.6426 54.0449 44.7006C53.8449 44.7746 53.6449 44.8376 53.4449 44.8946C53.2971 44.9398 53.1442 44.9664 52.9899 44.9736C52.7087 44.9787 52.4355 44.8805 52.2219 44.6976C52.1051 44.5878 52.0152 44.4525 51.959 44.3024C51.9028 44.1522 51.8819 43.9911 51.8979 43.8316V40.2656H51.2459V43.8416C51.2384 44.1094 51.2881 44.3757 51.3919 44.6226C51.478 44.8281 51.6089 45.0118 51.7749 45.1604C51.941 45.309 52.1381 45.4187 52.3519 45.4816C52.5584 45.5464 52.7734 45.5801 52.9899 45.5816C53.171 45.5738 53.3504 45.5433 53.5239 45.4906C53.7359 45.4326 53.9439 45.3696 54.1459 45.2906C54.3065 45.232 54.4942 45.159 54.7089 45.0716V45.4876H55.3599V40.2656H54.7079Z" fill="#6B6D70"/>
<path d="M59.1595 40.2656C58.8514 40.2653 58.5449 40.3094 58.2495 40.3966C58.0242 40.4646 57.8115 40.5686 57.6195 40.7046V40.2656H56.9385V45.4866H57.6195V41.3716C57.8468 41.2204 58.0929 41.0994 58.3515 41.0116C58.6176 40.9329 58.894 40.8948 59.1715 40.8986H59.9285V40.2656H59.1595Z" fill="#6B6D70"/>
<path d="M61.0226 45.4819H61.6996V40.2609H61.0256L61.0226 45.4819ZM61.6966 39.0369V38.1719H61.0156V39.6409L61.6966 39.0369Z" fill="#6B6D70"/>
<path d="M66.0003 40.8884V40.2664H64.3083V38.7734L63.6353 39.3984V40.2664H62.8213V40.8884H63.6353V43.7424C63.6065 44.198 63.7304 44.6501 63.9873 45.0274C64.1427 45.1912 64.3332 45.3175 64.5446 45.3969C64.7559 45.4762 64.9825 45.5065 65.2073 45.4854H66.0003V44.8754H65.2223C64.8223 44.8754 64.6003 44.7674 64.4953 44.5944C64.3558 44.3158 64.2917 44.0055 64.3093 43.6944V40.8944L66.0003 40.8884Z" fill="#6B6D70"/>
<path d="M67.7054 39.0369V38.1719H67.0234V39.6379L67.7054 39.0369ZM67.0344 45.4819H67.7054V40.2609H67.0344V45.4819Z" fill="#6B6D70"/>
<path d="M73.2507 42.1001C73.2687 41.8332 73.2275 41.5656 73.13 41.3165C73.0325 41.0674 72.8811 40.8429 72.6867 40.6591C72.2564 40.3177 71.7161 40.1456 71.1677 40.1751C70.901 40.1759 70.6361 40.2188 70.3827 40.3021C70.1391 40.3825 69.9128 40.508 69.7157 40.6721C69.5146 40.8394 69.3539 41.05 69.2457 41.2881C69.1277 41.5525 69.0693 41.8397 69.0747 42.1291V43.0291C69.037 43.681 69.1992 44.3289 69.5397 44.8861C69.7284 45.1244 69.9735 45.3118 70.2529 45.4314C70.5323 45.551 70.8371 45.599 71.1397 45.5711H71.1497C71.2647 45.5711 71.4217 45.5711 71.6217 45.5661C71.8217 45.5611 72.0157 45.5581 72.2077 45.5501C72.3997 45.5421 72.6407 45.5331 72.9277 45.5221L73.0447 45.5151V44.9601H71.1587C70.9489 44.9854 70.7362 44.9539 70.5427 44.869C70.3492 44.784 70.1821 44.6487 70.0587 44.4771C69.8344 44.0624 69.7243 43.5954 69.7397 43.1241H73.2507V42.1001ZM69.7387 42.5161V42.1491C69.7278 41.9654 69.7565 41.7814 69.823 41.6098C69.8894 41.4381 69.992 41.2827 70.1237 41.1541C70.4108 40.8986 70.7856 40.7639 71.1697 40.7781C71.5485 40.7536 71.9238 40.8634 72.2297 41.0881C72.3617 41.2213 72.4625 41.3822 72.5245 41.5592C72.5866 41.7361 72.6086 41.9247 72.5887 42.1111V42.5111L69.7387 42.5161Z" fill="#6B6D70"/>
<path d="M77.8088 42.9441C77.4755 42.6798 77.071 42.5207 76.6469 42.4871L76.1248 42.4361C75.7919 42.4196 75.4661 42.333 75.1688 42.1821C75.082 42.112 75.0143 42.021 74.9722 41.9177C74.93 41.8143 74.9148 41.702 74.9279 41.5911C74.9141 41.469 74.9362 41.3456 74.9914 41.2359C75.0467 41.1261 75.1326 41.0348 75.2388 40.9731C75.5251 40.8369 75.8389 40.7685 76.1558 40.7731H77.9659V40.2241H77.8458C77.5759 40.2171 77.3458 40.2071 77.1668 40.1941C76.9878 40.1811 76.7979 40.1791 76.6059 40.1721C76.4139 40.1651 76.2628 40.1641 76.1538 40.1641C75.9134 40.1628 75.6735 40.1887 75.4389 40.2411C75.2251 40.2881 75.0217 40.3738 74.8388 40.4941C74.6671 40.6139 74.5246 40.7707 74.4218 40.9531C74.3136 41.1581 74.2599 41.3874 74.2658 41.6191C74.2488 41.8188 74.2848 42.0195 74.3701 42.2009C74.4554 42.3823 74.5871 42.5379 74.7518 42.6521C75.1269 42.869 75.5466 42.9969 75.9788 43.0261L76.4669 43.0751C76.7702 43.0891 77.0624 43.1935 77.3058 43.3751C77.3928 43.4536 77.4611 43.5506 77.5057 43.6589C77.5503 43.7672 77.5702 43.8841 77.5639 44.0011C77.5801 44.1445 77.5537 44.2895 77.4878 44.418C77.422 44.5464 77.3198 44.6526 77.1938 44.7231C76.8644 44.8754 76.5035 44.9474 76.1408 44.9331H74.4368V45.5081L74.5539 45.5131C74.8259 45.5291 75.0539 45.5391 75.2339 45.5431C75.4139 45.5471 75.5908 45.5571 75.7678 45.5601C75.9448 45.5631 76.0768 45.5601 76.1678 45.5601C76.4331 45.5618 76.6979 45.536 76.9578 45.4831C77.1954 45.4376 77.4213 45.3443 77.6219 45.2091C77.8127 45.082 77.9699 44.9104 78.0799 44.7091C78.1997 44.4799 78.2586 44.2237 78.2508 43.9651C78.2597 43.7721 78.225 43.5796 78.1494 43.4018C78.0737 43.224 77.9591 43.0656 77.8139 42.9381" fill="#6B6D70"/>
<path d="M15.4998 14.4297V21.2857H12.0278V14.4297H10.5928V29.4667H1.43684V16.4667H8.00684V15.1467H0.00683594V30.7867H9.47784L10.5928 29.6767V32.9687H12.0278V22.6097H15.4998V32.9727H16.9358V14.4297H15.4998Z" fill="#6B6D70"/>
<path d="M36.9109 14.4297H35.4769V29.1507H36.9109V14.4297ZM27.4419 16.0437L31.2189 25.1257H32.7189L32.5779 24.7857L28.4209 14.7217H24.3389L20.0459 25.1217H21.5459L25.3249 16.0397L27.4419 16.0437ZM25.1319 32.8857V27.0407H23.6999V34.2047H37.2499V32.8857H25.1319Z" fill="#6B6D70"/>
<path d="M53.953 27.3482C53.2915 26.9526 52.5746 26.658 51.826 26.4742C50.0771 26.0609 48.2559 26.0609 46.507 26.4742C45.766 26.6546 45.0575 26.9491 44.407 27.3472C43.8334 27.7091 43.3517 28.1993 43 28.7792C42.6577 29.3533 42.4808 30.0108 42.489 30.6792C42.4796 31.3552 42.6564 32.0209 43 32.6032C43.3507 33.18 43.8298 33.668 44.4 34.0292C45.0504 34.4292 45.7628 34.7181 46.508 34.8842C48.2572 35.2682 50.0688 35.2682 51.818 34.8842C52.5671 34.7154 53.2845 34.4281 53.943 34.0332C54.5173 33.6694 55.0023 33.181 55.362 32.6042C55.6999 32.0227 55.8779 31.3622 55.8779 30.6897C55.8779 30.0172 55.6999 29.3566 55.362 28.7752C55.0037 28.2001 54.5213 27.7125 53.95 27.3482M53.95 32.2242C53.6156 32.642 53.1874 32.9751 52.7 33.1962C52.1576 33.4635 51.5776 33.6466 50.98 33.7392C50.3806 33.8371 49.7744 33.8879 49.167 33.8912C48.54 33.8904 47.914 33.8395 47.295 33.7392C46.7099 33.6479 46.1428 33.4657 45.614 33.1992C45.1396 32.9626 44.7265 32.6193 44.407 32.1962C44.0865 31.7491 43.9239 31.2079 43.945 30.6582C43.929 30.1219 44.095 29.596 44.416 29.1662C44.7411 28.7407 45.1586 28.3947 45.637 28.1542C46.1782 27.8882 46.7537 27.6983 47.347 27.5902C48.545 27.3595 49.776 27.3595 50.974 27.5902C51.5714 27.6973 52.151 27.8871 52.696 28.1542C53.1838 28.4051 53.6119 28.7581 53.951 29.1892C54.2585 29.6355 54.4231 30.1647 54.4231 30.7067C54.4231 31.2487 54.2575 31.7779 53.95 32.2242ZM42.212 21.9552H43.812L47.686 16.0642H50.867L54.883 21.9552H56.51L52.492 16.0642H56.783V14.7422H41.907V16.0642H46.089L42.212 21.9552ZM39.5 24.6742H59.1V23.3542H39.5V24.6742Z" fill="#6B6D70"/>
<path d="M65.9134 27.1967H67.3474V23.3487H76.4894V25.2657H70.8374V26.5657H76.4894V29.4657H77.9344V14.4297H76.4894V22.0297H71.2674L72.5004 20.7867V14.7437H62.5454V16.0877H71.0644V22.0277H60.4004V23.3487H65.9084L65.9134 27.1967ZM65.9764 32.8887V27.9177H64.5424V34.2047H78.2274V32.8857L65.9764 32.8887Z" fill="#6B6D70"/>
</svg>
