<svg width="138" height="54" viewBox="0 0 138 54" fill="none" xmlns="http://www.w3.org/2000/svg">
<path d="M48.075 19.375V17H51.575V19.375H56.25V21.625H53.8C54.35 22.2917 54.7833 23.0833 55.1 24C55.4333 24.9167 55.6083 25.9167 55.625 27C55.6083 28.0667 55.4583 29.05 55.175 29.95C54.8917 30.85 54.4917 31.625 53.975 32.275C53.4583 32.9417 52.85 33.4583 52.15 33.825C51.45 34.1917 50.675 34.375 49.825 34.375C48.9417 34.3917 48.1417 34.2167 47.425 33.85C46.7083 33.4667 46.1 32.95 45.6 32.3C45.0833 31.6333 44.6833 30.85 44.4 29.95C44.1333 29.05 44 28.0667 44 27C44 25.9167 44.1583 24.9167 44.475 24C44.8083 23.0833 45.25 22.2917 45.8 21.625H43.5V19.375H48.075ZM49.825 21.675C49.125 21.675 48.5333 22.1667 48.05 23.15C47.5833 24.1167 47.3583 25.4 47.375 27C47.3583 28.55 47.5833 29.7917 48.05 30.725C48.5167 31.6583 49.1 32.125 49.8 32.125C50.5 32.125 51.0833 31.6667 51.55 30.75C52.0167 29.8167 52.25 28.5667 52.25 27C52.25 25.3167 52.0167 24.0083 51.55 23.075C51.1 22.1417 50.525 21.675 49.825 21.675ZM61.875 26.125V39.625H58.5V17H61.875V23.875H65.125V26.125H61.875Z" fill="black"/>
<path d="M71.2348 30.875H76.9098C77.2764 30.875 77.6264 30.875 77.9598 30.875C78.3098 30.875 78.6514 30.8583 78.9848 30.825C79.3181 30.7917 79.6431 30.7333 79.9598 30.65C80.2931 30.55 80.6431 30.4 81.0098 30.2V17H84.3848V23.875H87.6348V26.125H84.3848V39.625H81.0098V32.45C80.4098 32.7167 79.7348 32.9 78.9848 33C78.2514 33.0833 77.5348 33.125 76.8348 33.125H69.3598C68.6098 33.125 67.9848 32.825 67.4848 32.225C67.0014 31.6083 66.7598 30.875 66.7598 30.025V18H70.1348V29.95C70.1348 30.25 70.2264 30.4833 70.4098 30.65C70.5931 30.8 70.8681 30.875 71.2348 30.875Z" fill="black"/>
<path d="M106.92 19.5H101.12C101.37 20.7 102.061 21.6417 103.195 22.325C104.328 22.9917 105.645 23.3583 107.145 23.425V25.75C106.211 25.75 105.32 25.6667 104.47 25.5C103.62 25.3167 102.845 25.075 102.145 24.775C101.428 24.4917 100.811 24.1667 100.295 23.8C99.7779 23.4167 99.4029 23.025 99.1695 22.625C98.9195 23.025 98.5362 23.4167 98.0195 23.8C97.5029 24.1667 96.9029 24.4917 96.2195 24.775C95.5195 25.075 94.7529 25.3167 93.9195 25.5C93.1029 25.6667 92.2612 25.75 91.3945 25.75V23.425C92.1112 23.3917 92.8029 23.2833 93.4695 23.1C94.1362 22.9167 94.7362 22.6583 95.2695 22.325C95.8029 21.9917 96.2529 21.5917 96.6195 21.125C96.9862 20.6417 97.2445 20.1 97.3945 19.5H91.6695V17.25H106.92V19.5ZM89.1445 27.375H109.395V29.625H103.645C104.195 30.1917 104.628 30.8583 104.945 31.625C105.278 32.375 105.445 33.1917 105.445 34.075C105.428 35.025 105.245 35.8917 104.895 36.675C104.561 37.4583 104.111 38.125 103.545 38.675C102.978 39.225 102.32 39.65 101.57 39.95C100.836 40.25 100.07 40.4 99.2695 40.4C98.4195 40.4 97.6195 40.2417 96.8695 39.925C96.1195 39.625 95.4612 39.1917 94.8945 38.625C94.3279 38.075 93.8779 37.4083 93.5445 36.625C93.2279 35.8583 93.0695 35.0083 93.0695 34.075C93.0695 33.2083 93.2279 32.3917 93.5445 31.625C93.8612 30.8583 94.2945 30.1917 94.8445 29.625H89.1445V27.375ZM99.2695 29.95C98.9195 29.95 98.5779 30.05 98.2445 30.25C97.9112 30.45 97.6112 30.725 97.3445 31.075C97.0779 31.4417 96.8612 31.8833 96.6945 32.4C96.5279 32.9 96.4445 33.4583 96.4445 34.075C96.4279 35.3583 96.7112 36.3583 97.2945 37.075C97.8779 37.7917 98.5279 38.15 99.2445 38.15C99.5779 38.15 99.9112 38.0583 100.245 37.875C100.595 37.6917 100.903 37.425 101.17 37.075C101.436 36.725 101.653 36.3 101.82 35.8C101.986 35.3 102.07 34.725 102.07 34.075C102.07 32.775 101.778 31.7667 101.195 31.05C100.611 30.3167 99.9695 29.95 99.2695 29.95Z" fill="black"/>
<path d="M119.579 25.35C119.729 24.8667 119.838 24.3583 119.904 23.825C119.988 23.2917 120.029 22.7583 120.029 22.225V19.75H112.029V17.5H123.404V22.175C123.404 22.7083 123.354 23.2583 123.254 23.825C123.154 24.375 123.038 24.8833 122.904 25.35H125.279V27.6H119.479V31.5H116.079V27.6H111.029V25.35H119.579ZM129.904 17V33.625H126.529V30.825H121.654V28.575H126.529V17H129.904ZM119.529 37.625H129.904V39.875H117.554C116.854 39.875 116.279 39.575 115.829 38.975C115.379 38.375 115.154 37.675 115.154 36.875V32.375H118.529V36.625C118.529 36.925 118.621 37.1667 118.804 37.35C118.988 37.5333 119.229 37.625 119.529 37.625Z" fill="black"/>
<path d="M27.2472 30.421C27.1559 29.8517 26.9933 29.2962 26.7632 28.7675C26.0928 27.196 24.9482 25.8734 23.4892 24.9843C22.3396 24.3022 21.0259 23.9457 19.6891 23.9532C18.3523 23.9607 17.0428 24.3319 15.9008 25.0269C14.8344 25.6692 13.9694 26.5976 13.404 27.7066C13.216 28.0836 13.0579 28.4746 12.9311 28.8763C12.5849 29.924 12.4525 31.0305 12.5416 32.1303C12.6307 33.2301 12.9394 34.3009 13.4497 35.2793C13.8038 35.8785 14.3424 36.3469 14.985 36.6144C15.3053 36.7442 15.6514 36.7976 15.9959 36.7702C16.3404 36.7428 16.6738 36.6355 16.9696 36.4568C17.298 36.2013 17.5434 35.8544 17.6749 35.4597C17.8065 35.0651 17.8183 34.6403 17.7089 34.2389C17.4521 33.219 17.4766 32.1485 17.7798 31.1414C17.8972 30.8113 18.0849 30.5107 18.3299 30.2603C18.4852 30.1132 18.663 29.9919 18.8564 29.9009C19.2598 29.6973 19.7159 29.6225 20.1632 29.6865C20.5492 29.7704 20.9099 29.9444 21.2159 30.1942C21.5219 30.444 21.7645 30.7627 21.924 31.1241C22.2352 31.8481 22.3961 32.6279 22.3968 33.416C22.4048 36.8936 21.8888 40.3525 20.8662 43.6763C20.7759 44.0157 20.6818 44.3541 20.5841 44.6914C20.5116 44.9515 20.3776 45.2826 20.5431 45.5364C20.6196 45.6424 20.7261 45.7231 20.8489 45.7681C21.0797 45.8343 21.3254 45.8266 21.5516 45.746C21.7778 45.6655 21.973 45.5161 22.11 45.3188C24.0531 43.2424 25.4859 40.742 26.2951 38.0157C26.6299 37.016 26.8969 35.9949 27.0943 34.9593C27.4046 33.4665 27.458 31.9317 27.2519 30.421" fill="#009090"/>
<path d="M41.6267 14.5889C41.6227 14.4709 41.5946 14.3549 41.5442 14.2481C41.4939 14.1412 41.4222 14.0458 41.3337 13.9676C41.2452 13.8894 41.1416 13.8301 41.0294 13.7933C40.9171 13.7564 40.7986 13.7429 40.6809 13.7535C40.1893 13.8225 39.7125 13.9727 39.2701 14.198C30.2715 17.422 20.6074 18.3348 11.1644 16.8525C9.57071 16.6224 7.95971 16.3024 6.3566 16.0533C5.35563 15.8957 4.36571 15.6687 3.35213 15.5931C2.44415 15.4195 1.50418 15.5994 0.72441 16.0959C0.323381 16.5356 0.0743956 17.0927 0.0142205 17.6848C-0.0459546 18.2769 0.0858709 18.8727 0.39023 19.3841C1.07369 20.5484 2.06322 21.503 3.25125 22.1442C4.34845 22.9264 5.65015 23.3713 6.99658 23.4242C10.5538 23.1962 14.1021 22.853 17.6415 22.3949C23.6709 21.6067 29.9919 20.8721 35.6572 18.5345C37.5366 17.7891 39.3078 16.7956 40.9237 15.5804C41.209 15.3661 41.6251 15.0051 41.6251 14.5858" fill="#009090"/>
<path d="M16.291 11.5651C16.291 12.4864 16.657 13.3698 17.3084 14.0212C17.9597 14.6726 18.8432 15.0386 19.7644 15.0386C20.6856 15.0386 21.5691 14.6726 22.2205 14.0212C22.8719 13.3698 23.2379 12.4864 23.2379 11.5651C23.2373 11.2768 23.1732 10.9921 23.0503 10.7313C22.7523 10.1007 22.4197 9.79337 22.4528 9.03673C22.4986 8.01685 21.1902 8.00267 20.4856 8.00267C19.7016 7.97734 18.9222 8.13267 18.2078 8.45665C17.6429 8.73899 17.1657 9.17026 16.8279 9.70391C16.4901 10.2376 16.3045 10.8533 16.291 11.4848V11.5651Z" fill="#E50044"/>
</svg>
