<svg width="104" height="24" viewBox="0 0 104 24" fill="none" xmlns="http://www.w3.org/2000/svg">
<path d="M17.8794 14.2227C17.8214 13.8615 17.7183 13.5091 17.5724 13.1737C17.1471 12.1768 16.4209 11.3377 15.4954 10.7737C14.766 10.3409 13.9327 10.1148 13.0846 10.1196C12.2366 10.1243 11.4058 10.3598 10.6814 10.8007C10.0049 11.2082 9.45611 11.7971 9.09737 12.5007C8.97816 12.7398 8.87786 12.9879 8.79737 13.2427C8.57779 13.9074 8.49378 14.6093 8.55029 15.307C8.6068 16.0047 8.80269 16.684 9.12637 17.3047C9.35103 17.6848 9.69274 17.982 10.1004 18.1517C10.3036 18.234 10.5231 18.2679 10.7417 18.2505C10.9602 18.2332 11.1717 18.1651 11.3594 18.0517C11.5677 17.8896 11.7234 17.6696 11.8068 17.4192C11.8903 17.1688 11.8978 16.8993 11.8284 16.6447C11.6655 15.9977 11.681 15.3186 11.8734 14.6797C11.9478 14.4703 12.0669 14.2795 12.2224 14.1207C12.3209 14.0274 12.4336 13.9504 12.5564 13.8927C12.8123 13.7636 13.1016 13.7161 13.3854 13.7567C13.6303 13.8099 13.8591 13.9203 14.0532 14.0788C14.2473 14.2373 14.4012 14.4394 14.5024 14.6687C14.6998 15.128 14.8019 15.6227 14.8024 16.1227C14.8074 18.3288 14.4801 20.5231 13.8314 22.6317C13.774 22.847 13.7144 23.0617 13.6524 23.2757C13.6064 23.4407 13.5214 23.6507 13.6264 23.8117C13.6749 23.8789 13.7425 23.9301 13.8204 23.9587C13.9668 24.0007 14.1227 23.9958 14.2662 23.9447C14.4096 23.8936 14.5335 23.7988 14.6204 23.6737C15.853 22.3564 16.7621 20.7702 17.2754 19.0407C17.4878 18.4065 17.6572 17.7587 17.7824 17.1017C17.9793 16.1547 18.0131 15.1811 17.8824 14.2227" fill="#00B2A6"/>
<path d="M27.0013 4.18071C26.9988 4.10582 26.9809 4.03224 26.949 3.96446C26.917 3.89669 26.8716 3.83615 26.8154 3.78654C26.7593 3.73693 26.6936 3.6993 26.6224 3.67594C26.5512 3.65259 26.4759 3.644 26.4013 3.65071C26.0894 3.6945 25.787 3.7898 25.5063 3.93271C19.7977 5.97798 13.6669 6.55702 7.67631 5.61671C6.66531 5.47071 5.64331 5.26771 4.62631 5.10971C3.99131 5.00971 3.36331 4.86571 2.72031 4.81771C2.14429 4.70764 1.54799 4.82175 1.05331 5.13671C0.7989 5.41568 0.640946 5.76907 0.602771 6.1447C0.564597 6.52032 0.648226 6.89826 0.841308 7.22271C1.27489 7.9613 1.90263 8.56691 2.65631 8.97371C3.35236 9.46993 4.17814 9.75215 5.03231 9.78571C7.28898 9.64104 9.53997 9.42338 11.7853 9.13271C15.6103 8.63271 19.6203 8.16671 23.2143 6.68371C24.4066 6.21087 25.5302 5.58061 26.5553 4.80971C26.7363 4.67371 27.0003 4.44471 27.0003 4.17871" fill="#00B2A6"/>
<path d="M10.9277 2.26169C10.9277 2.8461 11.1599 3.40657 11.5731 3.8198C11.9864 4.23304 12.5468 4.46519 13.1312 4.46519C13.7156 4.46519 14.2761 4.23304 14.6893 3.8198C15.1026 3.40657 15.3347 2.8461 15.3347 2.26169C15.3344 2.07876 15.2938 1.89815 15.2157 1.73269C15.0267 1.33269 14.8157 1.13769 14.8367 0.657692C14.8657 0.0106924 14.0357 0.00169239 13.5887 0.00169239C13.0914 -0.0143767 12.5969 0.0841632 12.1437 0.289692C11.7853 0.468808 11.4827 0.742399 11.2684 1.08094C11.0541 1.41948 10.9363 1.81012 10.9277 2.21069V2.26169Z" fill="#EF4567"/>
<path d="M34.2464 6.36174V4.84174H36.4864V6.36174H39.4784V7.80174H37.9104C38.2624 8.2284 38.5397 8.73507 38.7424 9.32174C38.9557 9.9084 39.0677 10.5484 39.0784 11.2417C39.0677 11.9244 38.9717 12.5537 38.7904 13.1297C38.609 13.7057 38.353 14.2017 38.0224 14.6177C37.6917 15.0444 37.3024 15.3751 36.8544 15.6097C36.4064 15.8444 35.9104 15.9617 35.3664 15.9617C34.801 15.9724 34.289 15.8604 33.8304 15.6257C33.3717 15.3804 32.9824 15.0497 32.6624 14.6337C32.3317 14.2071 32.0757 13.7057 31.8944 13.1297C31.7237 12.5537 31.6384 11.9244 31.6384 11.2417C31.6384 10.5484 31.7397 9.9084 31.9424 9.32174C32.1557 8.73507 32.4384 8.2284 32.7904 7.80174H31.3184V6.36174H34.2464ZM35.3664 7.83374C34.9184 7.83374 34.5397 8.1484 34.2304 8.77774C33.9317 9.3964 33.7877 10.2177 33.7984 11.2417C33.7877 12.2337 33.9317 13.0284 34.2304 13.6257C34.529 14.2231 34.9024 14.5217 35.3504 14.5217C35.7984 14.5217 36.1717 14.2284 36.4704 13.6417C36.769 13.0444 36.9184 12.2444 36.9184 11.2417C36.9184 10.1644 36.769 9.32707 36.4704 8.72974C36.1824 8.1324 35.8144 7.83374 35.3664 7.83374ZM43.0784 10.6817V19.3217H40.9184V4.84174H43.0784V9.24174H45.1584V10.6817H43.0784Z" fill="#231F20"/>
<path d="M49.0686 13.7217H52.7006C52.9353 13.7217 53.1593 13.7217 53.3726 13.7217C53.5966 13.7217 53.8153 13.7111 54.0286 13.6897C54.2419 13.6684 54.4499 13.6311 54.6526 13.5777C54.8659 13.5137 55.0899 13.4177 55.3246 13.2897V4.84174H57.4846V9.24174H59.5646V10.6817H57.4846V19.3217H55.3246V14.7297C54.9406 14.9004 54.5086 15.0177 54.0286 15.0817C53.5593 15.1351 53.1006 15.1617 52.6526 15.1617H47.8686C47.3886 15.1617 46.9886 14.9697 46.6686 14.5857C46.3593 14.1911 46.2046 13.7217 46.2046 13.1777V5.48174H48.3646V13.1297C48.3646 13.3217 48.4233 13.4711 48.5406 13.5777C48.6579 13.6737 48.8339 13.7217 49.0686 13.7217Z" fill="#231F20"/>
<path d="M63.4909 10.6817H60.4509V9.24174H63.9069C63.9495 8.98574 63.9815 8.72974 64.0029 8.47374C64.0349 8.21774 64.0509 7.95107 64.0509 7.67374V7.08174H60.4509V5.64174H66.2909V7.25774C66.2802 8.24974 66.1415 9.19907 65.8749 10.1057C65.6082 11.0124 65.2189 11.8337 64.7069 12.5697C64.1949 13.3057 63.5655 13.9351 62.8189 14.4577C62.0829 14.9697 61.2402 15.3324 60.2909 15.5457V14.0897C61.0375 13.7697 61.6775 13.3164 62.2109 12.7297C62.7549 12.1324 63.1815 11.4497 63.4909 10.6817ZM69.7309 10.7617V19.3217H67.6509V4.84174H69.7309V9.32174H70.7709V4.84174H72.8509V19.3217H70.7709V10.7617H69.7309Z" fill="#231F20"/>
<path d="M74.8571 7.08174V5.64174H82.7771V7.08174H81.5771V10.9377C81.5771 11.5351 81.5504 12.0844 81.4971 12.5857C81.4438 13.0871 81.3744 13.4657 81.2891 13.7217H81.7371V15.1617H74.7771V13.7217H76.0571V7.08174H74.8571ZM78.2171 13.7217H79.1291C79.2358 13.4444 79.3104 13.0657 79.3531 12.5857C79.3958 12.0951 79.4171 11.5457 79.4171 10.9377V7.08174H78.2171V13.7217ZM80.2171 13.7217H81.3371C81.6784 13.7217 81.9984 13.7217 82.2971 13.7217C82.6064 13.7111 82.9051 13.6791 83.1931 13.6257C83.4704 13.5724 83.7424 13.4924 84.0091 13.3857C84.2758 13.2684 84.5424 13.0977 84.8091 12.8737V14.2817C84.4358 14.6337 83.9291 14.8684 83.2891 14.9857C82.6598 15.1031 82.0198 15.1617 81.3691 15.1617H80.2171V13.7217ZM86.4571 4.84174V19.3217H84.2971V4.84174H86.4571Z" fill="#231F20"/>
<path d="M100.879 19.4817H92.9434C92.7194 19.4817 92.506 19.4284 92.3034 19.3217C92.1007 19.2257 91.9247 19.0871 91.7754 18.9057C91.626 18.7244 91.5034 18.5164 91.4074 18.2817C91.322 18.0471 91.2794 17.7964 91.2794 17.5297V15.6097H98.5434V14.6657H91.2794V13.2257H100.719V15.6897C100.719 16.0524 100.613 16.3724 100.399 16.6497C100.186 16.9164 99.9407 17.0497 99.6634 17.0497H93.4394V17.4817C93.4394 17.6524 93.4927 17.7857 93.5994 17.8817C93.7167 17.9884 93.882 18.0417 94.0954 18.0417H100.879V19.4817ZM89.4234 5.16174H96.2234V6.60174H91.5834V7.80174H96.0634V9.24174H91.5834V9.92974C91.5834 10.1217 91.642 10.2711 91.7594 10.3777C91.8767 10.4737 92.0527 10.5217 92.2874 10.5217H96.0794C96.5487 10.5217 96.97 10.5057 97.3434 10.4737C97.7274 10.4417 98.1274 10.3191 98.5434 10.1057V4.84174H100.703V7.48174H102.783V8.92174H100.703V12.4417H98.5434V11.4977C98.1594 11.6791 97.7594 11.8017 97.3434 11.8657C96.938 11.9297 96.5007 11.9617 96.0314 11.9617H91.0874C90.6074 11.9617 90.2074 11.7697 89.8874 11.3857C89.578 10.9911 89.4234 10.5217 89.4234 9.97774V5.16174Z" fill="#231F20"/>
</svg>
